<?xml version="1.0" encoding="UTF-8"?>
<svg id="Layer_2" xmlns="http://www.w3.org/2000/svg" viewBox="0 0 31.08 31.08">
  <g id="_x2018_ëîé_x5F_1">
    <g>
      <path d="M31.08,15.54c0,8.58-3.65,15.54-15.54,15.54S0,24.12,0,15.54,3.83,0,15.54,0s15.54,6.96,15.54,15.54Z" style="fill: #ffbe3b;"/>
      <g>
        <path d="M13.25,11.19c0,2.34-1.89,4.23-4.23,4.23s-4.23-1.89-4.23-4.23,1.89-4.23,4.23-4.23,4.23,1.89,4.23,4.23Z" style="fill: #fff;"/>
        <path d="M11.89,11.19c0,1.09-.88,1.98-1.98,1.98s-1.98-.88-1.98-1.98.88-1.98,1.98-1.98,1.98.88,1.98,1.98Z"/>
        <path d="M26.11,11.19c0,2.34-1.89,4.23-4.23,4.23s-4.23-1.89-4.23-4.23,1.89-4.23,4.23-4.23,4.23,1.89,4.23,4.23Z" style="fill: #fff;"/>
        <path d="M22.78,11.19c0,1.09-.88,1.98-1.98,1.98s-1.98-.88-1.98-1.98.88-1.98,1.98-1.98,1.98.88,1.98,1.98Z"/>
      </g>
      <g>
        <path d="M27.43,19.07c-.34-.13-.73.04-.86.39-1.73,4.56-6.17,7.62-11.03,7.62s-9.3-3.06-11.03-7.62c-.13-.34-.52-.52-.86-.39-.34.13-.52.52-.39.86,1.93,5.07,6.86,8.48,12.28,8.48s10.35-3.41,12.28-8.48c.13-.34-.04-.73-.39-.86Z" style="fill: #693719;"/>
        <path d="M20.29,4.1c2.05.13,4.01,1.19,5.23,2.84.13.18.33.27.54.27.14,0,.28-.04.4-.13.3-.22.36-.64.14-.93-1.45-1.96-3.78-3.22-6.22-3.37-.38-.02-.68.26-.71.62-.02.37.26.68.62.71Z" style="fill: #693719;"/>
        <path d="M5.03,7.2c.2,0,.41-.09.54-.27,1.22-1.65,3.18-2.71,5.23-2.84.37-.02.65-.34.62-.71-.02-.37-.34-.65-.71-.62-2.44.15-4.76,1.41-6.22,3.37-.22.3-.16.71.14.93.12.09.26.13.4.13Z" style="fill: #693719;"/>
      </g>
    </g>
  </g>
</svg>