<?xml version="1.0" encoding="UTF-8"?>
<svg id="Layer_2" xmlns="http://www.w3.org/2000/svg" viewBox="0 0 31.08 31.08">
  <g id="_x2018_ëîé_x5F_1">
    <g>
      <path d="M31.08,15.54c0,8.58-3.65,15.54-15.54,15.54S0,24.12,0,15.54,3.83,0,15.54,0s15.54,6.96,15.54,15.54Z" style="fill: #ffbe3b;"/>
      <g>
        <path d="M25.71,12.12l-4.15-1.15,4.14-2.13c.33-.17.46-.57.29-.9-.17-.33-.57-.46-.9-.29l-5.66,2.91c-.24.13-.39.39-.36.66.03.27.22.5.48.57l5.79,1.61c.06.02.12.02.18.02.29,0,.56-.19.64-.49.1-.35-.11-.72-.46-.82Z" style="fill: #693719;"/>
        <path d="M11.65,10.56l-5.66-2.91c-.33-.17-.73-.04-.9.29-.17.33-.04.73.29.9l4.14,2.13-4.15,1.15c-.35.1-.56.47-.46.82.08.3.35.49.64.49.06,0,.12,0,.18-.02l5.79-1.61c.26-.07.46-.3.48-.57.03-.27-.11-.54-.36-.66Z" style="fill: #693719;"/>
      </g>
      <g>
        <path d="M6.65,17.25c-.46,0-.86.2-1.14.52-.27.31-.42.74-.35,1.19.52,3.6,2.84,8.75,10.4,8.75s9.79-5.34,10.37-8.73c.08-.48-.08-.94-.39-1.26-.27-.29-.66-.47-1.1-.47H6.65Z" style="fill: #693719;"/>
        <g>
          <path d="M24.15,17.25H6.82c1.5,2.13,4.15,3.35,8.73,3.35s7.08-1.25,8.6-3.35Z" style="fill: #fff;"/>
          <path d="M15.55,27.71c2.31,0,4.12-.52,5.55-1.33-1.44-.61-3.29-.94-5.65-.94s-4.13.34-5.55.96c1.44.8,3.29,1.31,5.66,1.31Z" style="fill: #fff;"/>
        </g>
      </g>
    </g>
  </g>
</svg>