<?xml version="1.0" encoding="UTF-8"?>
<svg xmlns="http://www.w3.org/2000/svg" version="1.1" viewBox="0 0 31.1 31.1">
  <defs>
    <style>
      .cls-1 {
        fill: #fff;
      }

      .cls-2 {
        fill: #ffbe3b;
      }

      .cls-3 {
        fill: #94daeb;
      }

      .cls-4 {
        fill: #693719;
      }
    </style>
  </defs>
  <!-- Generator: Adobe Illustrator 28.6.0, SVG Export Plug-In . SVG Version: 1.2.0 Build 709)  -->
  <g>
    <g id="Layer_2">
      <g id="_x2018_ëîé_x5F_1">
        <g>
          <path class="cls-2" d="M31.1,15.5c0,8.6-3.6,15.5-15.5,15.5S0,24.1,0,15.5,3.8,0,15.5,0s15.5,7,15.5,15.5Z"/>
          <g>
            <path class="cls-4" d="M25.7,12.1l-4.1-1.1,4.1-2.1c.3-.2.5-.6.3-.9-.2-.3-.6-.5-.9-.3l-5.7,2.9c-.2.1-.4.4-.4.7,0,.3.2.5.5.6l5.8,1.6c0,0,.1,0,.2,0,.3,0,.6-.2.6-.5.1-.4-.1-.7-.5-.8h0Z"/>
            <path class="cls-4" d="M11.7,10.6l-5.7-2.9c-.3-.2-.7,0-.9.3s0,.7.3.9l4.1,2.1-4.1,1.1c-.4.1-.6.5-.5.8,0,.3.4.5.6.5s.1,0,.2,0l5.8-1.6c.3,0,.5-.3.5-.6,0-.3-.1-.5-.4-.7h0Z"/>
          </g>
          <g>
            <path class="cls-4" d="M6.7,17.2c-.5,0-.9.2-1.1.5-.3.3-.4.7-.4,1.2.5,3.6,2.8,8.8,10.4,8.8s9.8-5.3,10.4-8.7c0-.5,0-.9-.4-1.3-.3-.3-.7-.5-1.1-.5,0,0-17.8,0-17.8,0Z"/>
            <g>
              <path class="cls-1" d="M24.2,17.2H6.8c1.5,2.1,4.1,3.4,8.7,3.4s7.1-1.2,8.6-3.4Z"/>
              <path class="cls-1" d="M15.6,27.7c2.3,0,4.1-.5,5.6-1.3-1.4-.6-3.3-.9-5.6-.9s-4.1.3-5.6,1c1.4.8,3.3,1.3,5.7,1.3h0Z"/>
            </g>
          </g>
          <g>
            <path class="cls-3" d="M1.6,22.2c-1.2,1.4-3.3,1.5-4.7.2-1.4-1.2-1.5-3.3-.2-4.7s6.7-3.7,7.3-3.1-1.2,6.2-2.4,7.6h0Z"/>
            <path class="cls-3" d="M29.5,22.2c1.2,1.4,3.3,1.5,4.7.2s1.5-3.3.2-4.7-6.7-3.7-7.3-3.1,1.2,6.2,2.4,7.6h0Z"/>
          </g>
        </g>
      </g>
    </g>
  </g>
</svg>