<?xml version="1.0" encoding="UTF-8"?>
<svg id="Layer_2" xmlns="http://www.w3.org/2000/svg" viewBox="0 0 31.08 31.08">
  <g id="_x2018_ëîé_x5F_1">
    <g>
      <path d="M31.08,15.54c0,8.58-3.65,15.54-15.54,15.54S0,24.12,0,15.54,3.83,0,15.54,0s15.54,6.96,15.54,15.54Z" style="fill: #ffbe3b;"/>
      <g>
        <path d="M27.63,11.51c-.79-1.79-2.69-2.95-4.85-2.95-.02,0-.04,0-.06,0-2.12.02-3.91,1.15-4.66,2.96-.14.34.02.73.36.87.08.04.17.05.26.05.26,0,.51-.15.61-.41.56-1.33,1.85-2.13,3.45-2.14,1.63,0,3.08.83,3.67,2.15.15.34.54.49.88.34.34-.15.49-.54.34-.88Z" style="fill: #693719;"/>
        <path d="M8.17,8.56s-.04,0-.06,0c-2.12.02-3.91,1.15-4.66,2.96-.14.34.02.73.36.87.08.04.17.05.26.05.26,0,.51-.15.61-.41.56-1.33,1.85-2.13,3.45-2.14,1.64,0,3.08.83,3.67,2.15.15.34.54.49.88.34.34-.15.49-.54.34-.88-.79-1.79-2.69-2.95-4.84-2.95Z" style="fill: #693719;"/>
      </g>
      <g>
        <path d="M10.18,19.97c-.28,0-.52.12-.68.31s-.25.45-.21.72c.32,2.17,1.71,5.27,6.26,5.27s5.9-3.21,6.24-5.26c.05-.29-.05-.56-.24-.76-.17-.17-.4-.28-.66-.28h-10.72Z" style="fill: #693719;"/>
        <path d="M10.18,19.97c-.08,0-.16.01-.24.03.82,1.63,2.45,2.59,5.6,2.59s4.7-.99,5.54-2.6c-.06-.01-.12-.02-.19-.02h-10.72Z" style="fill: #fff;"/>
        <path d="M13.28,25.92s0,.02,0,.04c.65.2,1.4.31,2.27.31,2.37,0,3.88-.91,4.83-2.06-.74-.55-1.83-.91-3.05-.91-2.24,0-4.05,1.17-4.05,2.62Z" style="fill: #f85c44;"/>
      </g>
    </g>
  </g>
</svg>