<?xml version="1.0" encoding="UTF-8"?>
<svg id="Layer_2" xmlns="http://www.w3.org/2000/svg" viewBox="0 0 31.08 31.08">
  <g id="_x2018_ëîé_x5F_1">
    <g>
      <path d="M31.08,15.54c0,8.58-3.65,15.54-15.54,15.54S0,24.12,0,15.54,3.83,0,15.54,0s15.54,6.96,15.54,15.54Z" style="fill: #ffbe3b;"/>
      <g>
        <circle cx="10.09" cy="8.73" r="5.86" style="fill: #fff;"/>
        <path d="M14.35,8.73c0,1.21-.98,2.18-2.18,2.18s-2.18-.98-2.18-2.18.98-2.18,2.18-2.18,2.18.98,2.18,2.18Z"/>
        <circle cx="20.99" cy="8.73" r="5.86" style="fill: #fff;"/>
        <path d="M20.85,8.73c0,1.21-.98,2.18-2.18,2.18s-2.18-.98-2.18-2.18.98-2.18,2.18-2.18,2.18.98,2.18,2.18Z"/>
      </g>
      <g>
        <path d="M5.14,16.76c-.53,0-1.01.24-1.33.6-.32.37-.49.87-.41,1.4.61,4.2,3.32,10.23,12.16,10.23s11.45-6.24,12.12-10.21c.1-.56-.1-1.09-.46-1.47-.32-.34-.77-.55-1.28-.55H5.14Z" style="fill: #693719;"/>
        <path d="M5.14,16.76c-.16,0-.31.03-.46.07,1.58,3.17,4.76,5.02,10.87,5.02s9.13-1.92,10.76-5.05c-.12-.03-.24-.04-.37-.04H5.14Z" style="fill: #fff;"/>
        <path d="M9.75,27.86c1.56.7,3.47,1.13,5.81,1.13,3.85,0,6.53-1.23,8.39-2.94-1.03-1.73-3.83-2.8-6.41-1.01-2.94-2.16-6.89-.09-7.79,2.83Z" style="fill: #f85c44;"/>
      </g>
    </g>
  </g>
</svg>