<?xml version="1.0" encoding="UTF-8"?>
<svg id="Layer_2" xmlns="http://www.w3.org/2000/svg" viewBox="0 0 31.08 31.08">
  <g id="_x2018_ëîé_x5F_1">
    <g>
      <path d="M31.08,15.54c0,8.58-3.65,15.54-15.54,15.54S0,24.12,0,15.54,3.83,0,15.54,0s15.54,6.96,15.54,15.54Z" style="fill: #ffbe3b;"/>
      <g>
        <path d="M25.71,12.12l-4.15-1.15,4.14-2.13c.33-.17.46-.57.29-.9-.17-.33-.57-.46-.9-.29l-5.66,2.91c-.24.13-.39.39-.36.66.03.27.22.5.48.57l5.79,1.61c.06.02.12.02.18.02.29,0,.56-.19.64-.49.1-.35-.11-.72-.46-.82Z" style="fill: #693719;"/>
        <path d="M11.65,10.56l-5.66-2.91c-.33-.17-.73-.04-.9.29-.17.33-.04.73.29.9l4.14,2.13-4.15,1.15c-.35.1-.56.47-.46.82.08.3.35.49.64.49.06,0,.12,0,.18-.02l5.79-1.61c.26-.07.46-.3.48-.57.03-.27-.11-.54-.36-.66Z" style="fill: #693719;"/>
      </g>
      <g>
        <path d="M24.56,24.87c-1.57,2.95-4.61-.89-9.01-.87-4.42-.13-7.11,3.35-8.94,1.02-1.83-2.33,1.64-9.47,9.02-9.47s10.51,6.38,8.94,9.32Z" style="fill: #693719;"/>
        <path d="M9.22,17.78c1.5.9,3.51.88,6.33.88,3.04,0,5.2.3,6.66-.85-1.56-1.33-3.76-2.27-6.59-2.27-2.67,0-4.82.94-6.4,2.24Z" style="fill: #fff;"/>
      </g>
    </g>
  </g>
</svg>