<?xml version="1.0" encoding="UTF-8"?>
<svg id="Layer_2" xmlns="http://www.w3.org/2000/svg" viewBox="0 0 31.08 31.08">
  <g id="_x2018_ëîé_x5F_1">
    <g>
      <path d="M31.08,15.54c0,8.58-3.65,15.54-15.54,15.54S0,24.12,0,15.54,3.83,0,15.54,0s15.54,6.96,15.54,15.54Z" style="fill: #ffbe3b;"/>
      <g>
        <circle cx="10.09" cy="11.2" r="5.86" style="fill: #fff;"/>
        <path d="M14.35,11.2c0,1.21-.98,2.18-2.18,2.18s-2.18-.98-2.18-2.18.98-2.18,2.18-2.18,2.18.98,2.18,2.18Z"/>
        <circle cx="20.99" cy="11.2" r="5.86" style="fill: #fff;"/>
        <path d="M20.85,11.2c0,1.21-.98,2.18-2.18,2.18s-2.18-.98-2.18-2.18.98-2.18,2.18-2.18,2.18.98,2.18,2.18Z"/>
      </g>
      <g>
        <path d="M26.59,5.37c-1.45-1.96-3.78-3.22-6.22-3.37-.37-.02-.68.26-.71.62-.02.37.26.68.62.71,2.05.13,4.01,1.19,5.23,2.84.13.18.33.27.54.27.14,0,.28-.04.4-.13.3-.22.36-.64.14-.93Z" style="fill: #693719;"/>
        <path d="M10.72,2c-2.44.15-4.76,1.41-6.22,3.37-.22.3-.16.71.14.93.12.09.26.13.4.13.2,0,.41-.09.54-.27,1.22-1.65,3.18-2.71,5.23-2.84.37-.02.65-.34.62-.71-.02-.37-.34-.65-.71-.62Z" style="fill: #693719;"/>
      </g>
      <path d="M22.17,25.36c-.08,2.51-3.15.36-6.39.37-3.26-.08-6.86,2.23-6.86-.28-.05-2.7,3.84-4.67,6.91-4.6,3.06-.02,6.46,1.75,6.34,4.51Z" style="fill: #693719;"/>
    </g>
  </g>
</svg>