<?xml version="1.0" encoding="UTF-8"?>
<svg id="Layer_2" xmlns="http://www.w3.org/2000/svg" viewBox="0 0 31.08 31.08">
  <g id="_x2018_ëîé_x5F_1">
    <g>
      <path d="M31.08,15.54c0,8.58-3.65,15.54-15.54,15.54S0,24.12,0,15.54,3.83,0,15.54,0s15.54,6.96,15.54,15.54Z" style="fill: #ffbe3b;"/>
      <g>
        <circle cx="10.09" cy="10.51" r="5.86" style="fill: #fff;"/>
        <path d="M12.16,12.69c0,1.21-.98,2.18-2.18,2.18s-2.18-.98-2.18-2.18.98-2.18,2.18-2.18,2.18.98,2.18,2.18Z"/>
        <circle cx="20.99" cy="10.51" r="5.86" style="fill: #fff;"/>
        <path d="M23.17,8.32c0,1.2-.98,2.18-2.18,2.18s-2.18-.98-2.18-2.18.98-2.18,2.18-2.18,2.18.98,2.18,2.18Z"/>
      </g>
      <path d="M20.6,24.35c-1.44,0-2.93-.39-4.69-1.24l-.51-.25c-1.21-.59-2.36-1.16-3.58-1.33-2-.28-4.11.59-5.38,2.22-.23.29-.64.34-.94.12s-.34-.64-.12-.94c1.56-2,4.15-3.07,6.62-2.72,1.44.2,2.73.84,3.98,1.45l.5.25c1.57.76,2.87,1.11,4.11,1.11,1.82,0,3.16-2.14,3.18-2.16.19-.31.6-.41.92-.22.31.19.41.6.22.91-.07.11-1.74,2.8-4.31,2.8Z" style="fill: #693719;"/>
    </g>
  </g>
</svg>