<?xml version="1.0" encoding="UTF-8"?>
<svg id="Layer_2" xmlns="http://www.w3.org/2000/svg" viewBox="0 0 31.08 31.08">
  <g id="_x2018_ëîé_x5F_1">
    <g>
      <path d="M31.08,15.54c0,8.58-3.65,15.54-15.54,15.54S0,24.12,0,15.54,3.83,0,15.54,0s15.54,6.96,15.54,15.54Z" style="fill: #ffbe3b;"/>
      <g>
        <path d="M15.98,13.37c0,3.41-2.76,6.17-6.17,6.17s-6.17-2.76-6.17-6.17,2.76-6.17,6.17-6.17,6.17,2.76,6.17,6.17Z" style="fill: #fff;"/>
        <circle cx="11.99" cy="13.37" r="2.3"/>
        <path d="M27.44,13.37c0,3.41-2.76,6.17-6.17,6.17s-6.17-2.76-6.17-6.17,2.76-6.17,6.17-6.17,6.17,2.76,6.17,6.17Z" style="fill: #fff;"/>
        <circle cx="18.83" cy="13.37" r="2.3"/>
      </g>
      <path d="M17.79,26.09c-.03,1.68-1.15,1.83-2.25,1.84-1.11-.05-2.25-.1-2.25-1.78-.02-1.81,1.21-3.13,2.25-3.08,1.04-.01,2.29,1.17,2.25,3.02Z" style="fill: #693719;"/>
      <g>
        <path d="M11.6,4.59c-2.4-.46-4.96.19-6.86,1.74-.29.23-.33.65-.1.94.13.16.32.25.52.25.15,0,.3-.05.42-.15,1.59-1.3,3.75-1.84,5.77-1.46.36.07.71-.17.78-.53.07-.36-.17-.71-.53-.78Z" style="fill: #693719;"/>
        <path d="M24.69,3.98c-1.85-1.6-4.4-2.32-6.81-1.93-.36.06-.61.4-.55.76.06.36.4.61.76.55,2.03-.33,4.17.28,5.72,1.62.13.11.28.16.44.16.19,0,.37-.08.51-.23.24-.28.21-.7-.07-.94Z" style="fill: #693719;"/>
      </g>
    </g>
  </g>
</svg>