<?xml version="1.0" encoding="UTF-8"?>
<svg id="Layer_2" xmlns="http://www.w3.org/2000/svg" viewBox="0 0 31.08 31.08">
  <g id="_x2018_ëîé_x5F_1">
    <g>
      <path d="M31.08,15.54c0,8.58-3.65,15.54-15.54,15.54S0,24.12,0,15.54,3.83,0,15.54,0s15.54,6.96,15.54,15.54Z" style="fill: #ffbe3b;"/>
      <g>
        <circle cx="10.09" cy="10.51" r="5.86" style="fill: #fff;"/>
        <path d="M14.35,10.51c0,1.21-.98,2.18-2.18,2.18s-2.18-.98-2.18-2.18.98-2.18,2.18-2.18,2.18.98,2.18,2.18Z"/>
        <circle cx="20.99" cy="10.51" r="5.86" style="fill: #fff;"/>
        <path d="M20.85,10.51c0,1.21-.98,2.18-2.18,2.18s-2.18-.98-2.18-2.18.98-2.18,2.18-2.18,2.18.98,2.18,2.18Z"/>
      </g>
      <g>
        <path d="M24.38,19.06c-2.23-1.48-2.73.9-8.84.9s-6.6-2.38-8.84-.9c-2.23,1.48-1.72,7.06,0,8.45,1.72,1.39,4.24-.25,8.84-.25s7.11,1.64,8.84.25c1.72-1.39,2.23-6.97,0-8.45Z" style="fill: #693719;"/>
        <g>
          <path d="M15.72,24.64c-7.01,0-8.43,1.25-8.63,3.12,1.71.91,4.18-.5,8.45-.5,4.59,0,7.1,1.63,8.82.26-.23-1.79-1.83-2.88-8.64-2.88Z" style="fill: #fff;"/>
          <path d="M24.38,19.06c-2.23-1.48-2.73.9-8.84.9-5.77,0-6.53-2.12-8.48-1.11-.01,2.22,1.15,3.6,8.67,3.6s8.5-1.37,8.65-3.39c0,0,0,0,0,0Z" style="fill: #fff;"/>
        </g>
      </g>
    </g>
  </g>
</svg>