<?xml version="1.0" encoding="UTF-8"?>
<svg id="Layer_2" xmlns="http://www.w3.org/2000/svg" viewBox="0 0 31.08 31.08">
  <g id="_x2018_ëîé_x5F_1">
    <g>
      <path d="M31.08,15.54c0,8.58-3.65,15.54-15.54,15.54S0,24.12,0,15.54,3.83,0,15.54,0s15.54,6.96,15.54,15.54Z" style="fill: #ffbe3b;"/>
      <g>
        <circle cx="8.66" cy="9.82" r="4.23" style="fill: #fff;"/>
        <path d="M11.53,9.82c0,1.09-.88,1.98-1.98,1.98s-1.98-.88-1.98-1.98.88-1.98,1.98-1.98,1.98.88,1.98,1.98Z"/>
        <circle cx="22.42" cy="9.82" r="4.23" style="fill: #fff;"/>
        <path d="M23.32,9.82c0,1.09-.88,1.98-1.98,1.98s-1.98-.88-1.98-1.98.88-1.98,1.98-1.98,1.98.88,1.98,1.98Z"/>
      </g>
      <g>
        <path d="M6.44,15.85c-.47,0-.88.21-1.16.53s-.43.76-.36,1.22c.54,3.68,2.91,8.95,10.63,8.95s10.01-5.46,10.6-8.93c.08-.49-.08-.96-.4-1.29-.28-.29-.68-.48-1.12-.48H6.44Z" style="fill: #693719;"/>
        <path d="M6.44,15.85c-.14,0-.27.02-.4.06,1.38,2.77,4.16,4.39,9.51,4.39s7.99-1.68,9.41-4.42c-.1-.02-.21-.03-.32-.03H6.44Z" style="fill: #fff;"/>
        <path d="M10.48,25.56c1.36.61,3.03.99,5.08.99,3.37,0,5.71-1.08,7.34-2.57-.9-1.51-3.35-2.45-5.6-.88-2.57-1.89-6.03-.07-6.81,2.47Z" style="fill: #f85c44;"/>
      </g>
      <g>
        <path d="M25.3,4.04c-2.11-.28-4.13-1.02-5.84-2.14-.31-.2-.72-.12-.92.19-.2.31-.12.72.19.92,1.87,1.23,4.09,2.04,6.39,2.35.03,0,.06,0,.09,0,.33,0,.62-.24.66-.58.05-.37-.21-.7-.57-.75Z" style="fill: #693719;"/>
        <path d="M11.62,1.91c-1.71,1.12-3.73,1.86-5.84,2.14-.37.05-.62.38-.57.75.04.34.33.58.66.58.03,0,.06,0,.09,0,2.31-.3,4.52-1.11,6.4-2.35.31-.2.39-.62.19-.92-.2-.31-.62-.39-.92-.19Z" style="fill: #693719;"/>
      </g>
    </g>
  </g>
</svg>