<?xml version="1.0" encoding="UTF-8"?>
<svg id="Layer_2" xmlns="http://www.w3.org/2000/svg" viewBox="0 0 31.08 31.08">
  <g id="_x2018_ëîé_x5F_1">
    <g>
      <path d="M31.08,15.54c0,8.58-3.65,15.54-15.54,15.54S0,24.12,0,15.54,3.83,0,15.54,0s15.54,6.96,15.54,15.54Z" style="fill: #ffbe3b;"/>
      <g>
        <circle cx="8.52" cy="13.47" r="6.39" style="fill: #fff;"/>
        <path d="M12.72,13.47c0,2.32-1.88,4.21-4.21,4.21s-4.21-1.88-4.21-4.21,1.88-4.21,4.21-4.21,4.21,1.88,4.21,4.21Z"/>
        <circle cx="22.57" cy="13.47" r="6.39" style="fill: #fff;"/>
        <path d="M26.77,13.47c0,2.32-1.88,4.21-4.21,4.21s-4.21-1.88-4.21-4.21,1.88-4.21,4.21-4.21,4.21,1.88,4.21,4.21Z"/>
        <g>
          <path d="M25.18,11.86c0,.64-.52,1.16-1.16,1.16s-1.16-.52-1.16-1.16.52-1.16,1.16-1.16,1.16.52,1.16,1.16Z" style="fill: #fff;"/>
          <circle cx="20.52" cy="15.67" r=".57" style="fill: #fff;"/>
        </g>
        <g>
          <path d="M11.13,11.86c0,.64-.52,1.16-1.16,1.16s-1.16-.52-1.16-1.16.52-1.16,1.16-1.16,1.16.52,1.16,1.16Z" style="fill: #fff;"/>
          <path d="M7.05,15.67c0,.32-.26.57-.57.57s-.57-.26-.57-.57.26-.57.57-.57.57.26.57.57Z" style="fill: #fff;"/>
        </g>
      </g>
      <g>
        <path d="M24.16,4.81c-1.84-.27-3.6-1.01-5.09-2.12-.3-.22-.71-.16-.93.14-.22.3-.16.71.14.93,1.66,1.24,3.63,2.06,5.69,2.37.03,0,.07,0,.1,0,.32,0,.61-.24.66-.57.05-.36-.2-.7-.56-.76Z" style="fill: #693719;"/>
        <path d="M12.95,2.83c-.22-.3-.64-.36-.93-.14-1.49,1.11-3.25,1.84-5.09,2.12-.36.05-.62.39-.56.76.05.33.33.57.66.57.03,0,.07,0,.1,0,2.06-.31,4.02-1.12,5.69-2.37.3-.22.36-.64.14-.93Z" style="fill: #693719;"/>
        <path d="M18.21,24.75c-1.77-.35-3.63-.28-5.38.19-.36.1-.56.46-.47.82.08.3.35.49.64.49.06,0,.12,0,.18-.02,1.55-.42,3.19-.48,4.77-.17.36.07.71-.16.78-.52.07-.36-.16-.71-.52-.78Z" style="fill: #693719;"/>
      </g>
      <path d="M31.87,23.47c0,2.01-1.63,3.63-3.63,3.63s-3.63-1.63-3.63-3.63,2.77-7.92,3.63-7.92,3.63,5.92,3.63,7.92Z" style="fill: #94daeb;"/>
    </g>
  </g>
</svg>