<?xml version="1.0" encoding="UTF-8"?>
<svg id="Layer_2" xmlns="http://www.w3.org/2000/svg" viewBox="0 0 31.08 31.08">
  <g id="_x2018_ëîé_x5F_1">
    <g>
      <path d="M31.08,15.54c0,8.58-3.65,15.54-15.54,15.54S0,24.12,0,15.54,3.83,0,15.54,0s15.54,6.96,15.54,15.54Z" style="fill: #ffbe3b;"/>
      <g>
        <path d="M15.96,14.85c0,3.24-2.62,5.86-5.86,5.86s-5.86-2.62-5.86-5.86,2.62-5.86,5.86-5.86,5.86,2.62,5.86,5.86Z" style="fill: #fff;"/>
        <circle cx="12.31" cy="12.67" r="2.18"/>
        <path d="M26.85,14.85c0,3.24-2.62,5.86-5.86,5.86s-5.86-2.62-5.86-5.86,2.62-5.86,5.86-5.86,5.86,2.62,5.86,5.86Z" style="fill: #fff;"/>
        <path d="M25.35,12.67c0,1.21-.98,2.18-2.18,2.18s-2.18-.98-2.18-2.18.98-2.18,2.18-2.18,2.18.98,2.18,2.18Z"/>
      </g>
      <g>
        <path d="M17.83,22.62c-2.5.35-4.98,1.21-7.16,2.48-.32.19-.43.59-.24.91.12.21.35.33.58.33.11,0,.23-.03.34-.09,2.03-1.19,4.34-1.99,6.67-2.31.36-.05.62-.39.57-.75-.05-.36-.38-.62-.75-.57Z" style="fill: #693719;"/>
        <path d="M24.16,5.78c-1.84-.27-3.6-1.01-5.09-2.12-.3-.22-.71-.16-.93.14-.22.3-.16.71.14.93,1.67,1.24,3.63,2.06,5.69,2.37.03,0,.07,0,.1,0,.32,0,.61-.24.66-.57.05-.36-.2-.7-.56-.76Z" style="fill: #693719;"/>
        <path d="M12.95,3.8c-.22-.3-.64-.36-.93-.14-1.49,1.11-3.25,1.84-5.09,2.12-.36.05-.62.39-.56.76.05.33.33.57.66.57.03,0,.07,0,.1,0,2.05-.31,4.02-1.12,5.69-2.37.3-.22.36-.64.14-.93Z" style="fill: #693719;"/>
      </g>
    </g>
  </g>
</svg>