<?xml version="1.0" encoding="UTF-8"?>
<svg id="Layer_2" xmlns="http://www.w3.org/2000/svg" viewBox="0 0 31.08 31.08">
  <g id="_x2018_ëîé_x5F_1">
    <g>
      <path d="M0,15.54c0,8.58,3.65,15.54,15.54,15.54s15.54-6.96,15.54-15.54S27.25,0,15.54,0,0,6.96,0,15.54Z" style="fill: #ffbe3b;"/>
      <g>
        <path d="M15.05,13.88c0,3.84,3.11,6.95,6.95,6.95s6.95-3.11,6.95-6.95-3.11-6.95-6.95-6.95-6.95,3.11-6.95,6.95Z" style="fill: #fff;"/>
        <circle cx="20.55" cy="11.36" r="2.9"/>
        <path d="M2.13,13.88c0,3.84,3.11,6.95,6.95,6.95s6.95-3.11,6.95-6.95-3.11-6.95-6.95-6.95-6.95,3.11-6.95,6.95Z" style="fill: #fff;"/>
        <circle cx="10.53" cy="11.36" r="2.9"/>
      </g>
      <g>
        <path d="M12.01,2.54c-1.49,1.11-3.25,1.84-5.09,2.12-.36.05-.62.39-.56.76.05.33.33.57.66.57.03,0,.07,0,.1,0,2.05-.31,4.02-1.12,5.69-2.37.3-.22.36-.64.14-.93-.22-.3-.64-.36-.93-.14Z" style="fill: #693719;"/>
        <path d="M24.16,4.66c-1.84-.27-3.6-1.01-5.09-2.12-.3-.22-.71-.16-.93.14-.22.3-.16.71.14.93,1.67,1.24,3.63,2.06,5.69,2.37.03,0,.07,0,.1,0,.32,0,.61-.24.66-.57.05-.36-.2-.7-.56-.76Z" style="fill: #693719;"/>
        <path d="M17.99,24.46c-1.06-.62-2.26-1.04-3.48-1.2-.36-.05-.7.2-.75.57-.05.36.2.7.57.75,1.04.15,2.08.5,2.99,1.04.11.06.22.09.34.09.23,0,.45-.12.58-.33.19-.32.08-.73-.24-.91Z" style="fill: #693719;"/>
      </g>
    </g>
  </g>
</svg>