<?xml version="1.0" encoding="UTF-8"?>
<svg id="Layer_2" xmlns="http://www.w3.org/2000/svg" viewBox="0 0 31.08 31.08">
  <g id="_x2018_ëîé_x5F_1">
    <g>
      <path d="M31.08,15.54c0,8.58-3.65,15.54-15.54,15.54S0,24.12,0,15.54,3.83,0,15.54,0s15.54,6.96,15.54,15.54Z" style="fill: #ffbe3b;"/>
      <g>
        <circle cx="10.09" cy="12.06" r="5.86" style="fill: #fff;"/>
        <circle cx="12.31" cy="9.87" r="2.18"/>
        <circle cx="20.99" cy="12.06" r="5.86" style="fill: #fff;"/>
        <path d="M25.35,9.87c0,1.21-.98,2.18-2.18,2.18s-2.18-.98-2.18-2.18.98-2.18,2.18-2.18,2.18.98,2.18,2.18Z"/>
      </g>
      <g>
        <path d="M26.61,22.21c-7.29-1.32-14.95-1.24-22.14.24-.36.07-.59.43-.52.79.06.32.34.53.65.53.04,0,.09,0,.14-.01,7.03-1.45,14.51-1.53,21.64-.24.36.07.71-.17.78-.54.07-.36-.17-.71-.54-.78Z" style="fill: #693719;"/>
        <path d="M23.96,5.17s.07,0,.1,0c.32,0,.61-.24.66-.57.05-.36-.2-.7-.56-.76-1.84-.27-3.6-1.01-5.09-2.12-.3-.22-.71-.16-.93.14-.22.3-.16.71.14.93,1.67,1.24,3.63,2.06,5.69,2.37Z" style="fill: #693719;"/>
        <path d="M7.03,5.18s.07,0,.1,0c2.05-.31,4.02-1.12,5.69-2.37.3-.22.36-.64.14-.93-.22-.3-.64-.36-.93-.14-1.49,1.11-3.25,1.84-5.09,2.12-.36.05-.62.39-.56.76.05.33.33.57.66.57Z" style="fill: #693719;"/>
      </g>
    </g>
  </g>
</svg>