<?xml version="1.0" encoding="UTF-8"?>
<svg id="Layer_2" xmlns="http://www.w3.org/2000/svg" viewBox="0 0 31.08 31.08">
  <g id="_x2018_ëîé_x5F_1">
    <g>
      <path d="M31.08,15.54c0,8.58-3.65,15.54-15.54,15.54S0,24.12,0,15.54,3.83,0,15.54,0s15.54,6.96,15.54,15.54Z" style="fill: #ffbe3b;"/>
      <g>
        <circle cx="8.12" cy="10.51" r="4.23" style="fill: #fff;"/>
        <path d="M10.99,10.51c0,1.09-.88,1.98-1.98,1.98s-1.98-.88-1.98-1.98.88-1.98,1.98-1.98,1.98.88,1.98,1.98Z"/>
        <circle cx="22.96" cy="10.51" r="4.23" style="fill: #fff;"/>
        <circle cx="21.88" cy="10.51" r="1.98"/>
      </g>
      <path d="M21.07,24.83c-.21,0-.41-.1-.54-.27-.02-.02-1.93-2.58-4.99-2.58s-4.97,2.55-4.99,2.58c-.22.3-.63.36-.93.15-.3-.22-.36-.63-.15-.93.09-.13,2.32-3.13,6.07-3.13s5.98,3,6.07,3.13c.22.3.15.71-.15.93-.12.09-.26.13-.39.13Z" style="fill: #693719;"/>
    </g>
  </g>
</svg>