<?xml version="1.0" encoding="UTF-8"?>
<svg id="Layer_2" xmlns="http://www.w3.org/2000/svg" xmlns:xlink="http://www.w3.org/1999/xlink" viewBox="0 0 31.08 31.08">
  <defs>
    <filter id="luminosity-noclip" x="19.68" y="17.68" width="9.84" height="8.39" color-interpolation-filters="sRGB" filterUnits="userSpaceOnUse">
      <feFlood flood-color="#fff" result="bg"/>
      <feBlend in="SourceGraphic" in2="bg"/>
    </filter>
    <filter id="luminosity-noclip-2" x="19.68" y="-8067.78" width="9.84" height="32766" color-interpolation-filters="sRGB" filterUnits="userSpaceOnUse">
      <feFlood flood-color="#fff" result="bg"/>
      <feBlend in="SourceGraphic" in2="bg"/>
    </filter>
    <mask id="mask-1" x="19.68" y="-8067.78" width="9.84" height="32766" maskUnits="userSpaceOnUse"/>
    <radialGradient id="_åçûìßííûé_ãðàäèåíò_2" data-name="åçûìßííûé ãðàäèåíò 2" cx="230.05" cy="371.5" fx="230.05" fy="371.5" r="5.22" gradientTransform="translate(-192.31 -276.75) scale(.94 .8)" gradientUnits="userSpaceOnUse">
      <stop offset="0" stop-color="#fff"/>
      <stop offset=".37" stop-color="#959595"/>
      <stop offset=".68" stop-color="#444"/>
      <stop offset=".89" stop-color="#131313"/>
      <stop offset="1" stop-color="#000"/>
    </radialGradient>
    <mask id="mask" x="19.68" y="17.68" width="9.84" height="8.39" maskUnits="userSpaceOnUse">
      <g style="filter: url(#luminosity-noclip);">
        <g style="mask: url(#mask-1);">
          <ellipse cx="24.6" cy="21.87" rx="4.92" ry="4.2" style="fill: url(#_åçûìßííûé_ãðàäèåíò_2); mix-blend-mode: multiply;"/>
        </g>
      </g>
    </mask>
    <radialGradient id="_åçûìßííûé_ãðàäèåíò_39" data-name="åçûìßííûé ãðàäèåíò 39" cx="230.05" cy="371.5" fx="230.05" fy="371.5" r="5.22" gradientTransform="translate(-192.31 -275.77) scale(.94 .8)" gradientUnits="userSpaceOnUse">
      <stop offset="0" stop-color="#ff5f5a"/>
      <stop offset=".36" stop-color="#ff5250"/>
      <stop offset="1" stop-color="#ffbe3b"/>
    </radialGradient>
    <filter id="luminosity-noclip-3" x="1.56" y="17.68" width="9.84" height="8.39" color-interpolation-filters="sRGB" filterUnits="userSpaceOnUse">
      <feFlood flood-color="#fff" result="bg"/>
      <feBlend in="SourceGraphic" in2="bg"/>
    </filter>
    <filter id="luminosity-noclip-4" x="1.56" y="-8067.78" width="9.84" height="32766" color-interpolation-filters="sRGB" filterUnits="userSpaceOnUse">
      <feFlood flood-color="#fff" result="bg"/>
      <feBlend in="SourceGraphic" in2="bg"/>
    </filter>
    <mask id="mask-3" x="1.56" y="-8067.78" width="9.84" height="32766" maskUnits="userSpaceOnUse"/>
    <radialGradient id="_åçûìßííûé_ãðàäèåíò_2-2" data-name="åçûìßííûé ãðàäèåíò 2" cx="210.83" fx="210.83" xlink:href="#_åçûìßííûé_ãðàäèåíò_2"/>
    <mask id="mask-2" x="1.56" y="17.68" width="9.84" height="8.39" maskUnits="userSpaceOnUse">
      <g style="filter: url(#luminosity-noclip-3);">
        <g style="mask: url(#mask-3);">
          <ellipse cx="6.48" cy="21.87" rx="4.92" ry="4.2" style="fill: url(#_åçûìßííûé_ãðàäèåíò_2-2); mix-blend-mode: multiply;"/>
        </g>
      </g>
    </mask>
    <radialGradient id="_åçûìßííûé_ãðàäèåíò_39-2" data-name="åçûìßííûé ãðàäèåíò 39" cx="210.83" fx="210.83" xlink:href="#_åçûìßííûé_ãðàäèåíò_39"/>
  </defs>
  <g id="_x2018_ëîé_x5F_1">
    <g>
      <path d="M31.08,15.54c0,8.58-3.65,15.54-15.54,15.54S0,24.12,0,15.54,3.83,0,15.54,0s15.54,6.96,15.54,15.54Z" style="fill: #ffbe3b;"/>
      <g>
        <g style="mask: url(#mask);">
          <ellipse cx="24.6" cy="21.87" rx="4.92" ry="4.2" style="fill: url(#_åçûìßííûé_ãðàäèåíò_39);"/>
        </g>
        <g style="mask: url(#mask-2);">
          <ellipse cx="6.48" cy="21.87" rx="4.92" ry="4.2" style="fill: url(#_åçûìßííûé_ãðàäèåíò_39-2);"/>
        </g>
      </g>
      <g>
        <circle cx="8.52" cy="13.47" r="6.39" style="fill: #fff;"/>
        <path d="M12.72,13.47c0,2.32-1.88,4.21-4.21,4.21s-4.21-1.88-4.21-4.21,1.88-4.21,4.21-4.21,4.21,1.88,4.21,4.21Z"/>
        <circle cx="22.57" cy="13.47" r="6.39" style="fill: #fff;"/>
        <path d="M26.77,13.47c0,2.32-1.88,4.21-4.21,4.21s-4.21-1.88-4.21-4.21,1.88-4.21,4.21-4.21,4.21,1.88,4.21,4.21Z"/>
        <g>
          <path d="M25.18,11.86c0,.64-.52,1.16-1.16,1.16s-1.16-.52-1.16-1.16.52-1.16,1.16-1.16,1.16.52,1.16,1.16Z" style="fill: #fff;"/>
          <circle cx="20.52" cy="15.67" r=".57" style="fill: #fff;"/>
        </g>
        <g>
          <path d="M11.13,11.86c0,.64-.52,1.16-1.16,1.16s-1.16-.52-1.16-1.16.52-1.16,1.16-1.16,1.16.52,1.16,1.16Z" style="fill: #fff;"/>
          <path d="M7.05,15.67c0,.32-.26.57-.57.57s-.57-.26-.57-.57.26-.57.57-.57.57.26.57.57Z" style="fill: #fff;"/>
        </g>
      </g>
      <g>
        <path d="M24.15,4.81c-1.84-.27-3.6-1.01-5.09-2.12-.3-.22-.71-.16-.93.14-.22.3-.16.71.14.93,1.66,1.24,3.63,2.06,5.69,2.37.03,0,.07,0,.1,0,.32,0,.61-.24.66-.57.05-.36-.2-.7-.56-.76Z" style="fill: #693719;"/>
        <path d="M12.95,2.83c-.22-.3-.64-.36-.93-.14-1.49,1.11-3.25,1.84-5.09,2.12-.36.05-.62.39-.56.76.05.33.33.57.66.57.03,0,.07,0,.1,0,2.06-.31,4.02-1.12,5.69-2.37.3-.22.36-.64.14-.93Z" style="fill: #693719;"/>
        <path d="M18.21,24.75c-1.77-.35-3.63-.28-5.38.19-.36.1-.56.46-.47.82.08.3.35.49.64.49.06,0,.12,0,.18-.02,1.55-.42,3.19-.48,4.77-.17.36.07.71-.16.78-.52.07-.36-.16-.71-.52-.78Z" style="fill: #693719;"/>
      </g>
    </g>
  </g>
</svg>