<?xml version="1.0" encoding="UTF-8"?>
<svg id="Layer_2" xmlns="http://www.w3.org/2000/svg" viewBox="0 0 31.08 31.08">
  <g id="_x2018_ëîé_x5F_1">
    <g>
      <path d="M31.08,15.54c0,8.58-3.65,15.54-15.54,15.54S0,24.12,0,15.54,3.83,0,15.54,0s15.54,6.96,15.54,15.54Z" style="fill: #ffbe3b;"/>
      <g>
        <circle cx="8.12" cy="11.1" r="4.23" style="fill: #fff;"/>
        <circle cx="9.02" cy="11.1" r="1.98"/>
        <circle cx="22.96" cy="11.1" r="4.23" style="fill: #fff;"/>
        <path d="M23.86,11.1c0,1.09-.88,1.98-1.98,1.98s-1.98-.88-1.98-1.98.88-1.98,1.98-1.98,1.98.88,1.98,1.98Z"/>
      </g>
      <g>
        <path d="M18.74,25.4c-.04,2.39-1.63,2.6-3.2,2.61-1.57-.07-3.2-.14-3.2-2.53-.02-2.57,1.72-4.45,3.2-4.38,1.48-.02,3.25,1.67,3.2,4.29Z" style="fill: #693719;"/>
        <path d="M15.54,28.01c.97,0,1.95-.09,2.57-.72-.32-1.05-1.49-1.94-2.56-1.09-1.05-.93-2.28,0-2.58,1.13.62.59,1.61.64,2.58.68Z" style="fill: #f85c44;"/>
      </g>
      <g>
        <path d="M24.16,4.2c-1.84-.27-3.6-1.01-5.09-2.12-.3-.22-.71-.16-.93.14-.22.3-.16.71.14.93,1.67,1.24,3.63,2.06,5.69,2.37.03,0,.07,0,.1,0,.32,0,.61-.24.66-.57.05-.36-.2-.7-.56-.76Z" style="fill: #693719;"/>
        <path d="M12.01,2.09c-1.49,1.11-3.25,1.84-5.09,2.12-.36.05-.62.39-.56.76.05.33.33.57.66.57.03,0,.07,0,.1,0,2.05-.31,4.02-1.12,5.69-2.37.3-.22.36-.64.14-.93-.22-.3-.64-.36-.93-.14Z" style="fill: #693719;"/>
      </g>
    </g>
  </g>
</svg>