<?xml version="1.0" encoding="UTF-8"?>
<svg id="Layer_2" xmlns="http://www.w3.org/2000/svg" viewBox="0 0 31.08 31.08">
  <g id="_x2018_ëîé_x5F_1">
    <g>
      <path d="M31.08,15.54c0,8.58-3.65,15.54-15.54,15.54S0,24.12,0,15.54,3.83,0,15.54,0s15.54,6.96,15.54,15.54Z" style="fill: #ffbe3b;"/>
      <g>
        <circle cx="10.09" cy="13.15" r="5.86" style="fill: #fff;"/>
        <path d="M14.34,13.15c0,1.21-.98,2.18-2.18,2.18s-2.18-.98-2.18-2.18.98-2.18,2.18-2.18,2.18.98,2.18,2.18Z"/>
        <path d="M26.85,13.15c0,3.24-2.62,5.86-5.86,5.86s-5.86-2.62-5.86-5.86,2.62-5.86,5.86-5.86,5.86,2.62,5.86,5.86Z" style="fill: #fff;"/>
        <path d="M20.85,13.15c0,1.21-.98,2.18-2.18,2.18s-2.18-.98-2.18-2.18.98-2.18,2.18-2.18,2.18.98,2.18,2.18Z"/>
      </g>
      <path d="M12.09,24.46c-.23,0-.45-.12-.58-.33-.19-.32-.08-.73.24-.91,2.18-1.27,4.65-2.13,7.16-2.48.37-.05.7.2.75.57.05.36-.2.7-.57.75-2.33.32-4.64,1.12-6.67,2.31-.11.06-.22.09-.34.09Z" style="fill: #693719;"/>
    </g>
  </g>
</svg>