<?xml version="1.0" encoding="UTF-8"?>
<svg id="Layer_2" xmlns="http://www.w3.org/2000/svg" viewBox="0 0 31.08 31.08">
  <g id="_x2018_ëîé_x5F_1">
    <g>
      <path d="M31.08,15.54c0,8.58-3.65,15.54-15.54,15.54S0,24.12,0,15.54,3.83,0,15.54,0s15.54,6.96,15.54,15.54Z" style="fill: #ffbe3b;"/>
      <g>
        <path d="M16,10.51c0,3.55-2.87,6.42-6.42,6.42s-6.42-2.87-6.42-6.42,2.87-6.42,6.42-6.42,6.42,2.87,6.42,6.42Z" style="fill: #fff;"/>
        <path d="M14.23,10.51c0,1.32-1.07,2.39-2.39,2.39s-2.39-1.07-2.39-2.39,1.07-2.39,2.39-2.39,2.39,1.07,2.39,2.39Z"/>
        <path d="M27.93,10.51c0,3.55-2.87,6.42-6.42,6.42s-6.42-2.87-6.42-6.42,2.87-6.42,6.42-6.42,6.42,2.87,6.42,6.42Z" style="fill: #fff;"/>
        <path d="M21.35,10.51c0,1.32-1.07,2.39-2.39,2.39s-2.39-1.07-2.39-2.39,1.07-2.39,2.39-2.39,2.39,1.07,2.39,2.39Z"/>
      </g>
      <g>
        <path d="M21.71,27.65c-1.16,2.18-3.41-.66-6.66-.65-3.26-.09-5.25,2.47-6.6.75-1.35-1.72,1.21-6.99,6.66-6.99s7.76,4.71,6.6,6.89Z" style="fill: #693719;"/>
        <path d="M10.38,22.41c1.11.66,2.59.65,4.67.65,2.24,0,3.84.22,4.92-.63-1.15-.98-2.78-1.67-4.87-1.67-1.97,0-3.56.69-4.73,1.65Z" style="fill: #fff;"/>
      </g>
      <path d="M31.74,6.96c.8,1.46.27,3.3-1.2,4.1-1.46.8-3.3.27-4.1-1.2-.8-1.46-1.14-6.88-.51-7.23.63-.34,5.01,2.86,5.81,4.32Z" style="fill: #94daeb;"/>
      <path d="M34.03,18.53c.24,1.42-.72,2.77-2.14,3-1.42.24-2.77-.72-3-2.14-.24-1.42,1.02-5.94,1.64-6.04s3.28,3.76,3.51,5.18Z" style="fill: #94daeb;"/>
    </g>
  </g>
</svg>