<?xml version="1.0" encoding="UTF-8"?>
<svg id="Layer_2" xmlns="http://www.w3.org/2000/svg" xmlns:xlink="http://www.w3.org/1999/xlink" viewBox="0 0 31.08 31.08">
  <defs>
    <radialGradient id="_30_gradient" data-name="åçûìßííûé ãðàäèåíò 88" cx="15.28" cy="2.46" fx="15.28" fy="2.46" r="24.64" gradientUnits="userSpaceOnUse">
      <stop offset="0" stop-color="#009bdd"/>
      <stop offset="1" stop-color="#ffbe3b"/>
    </radialGradient>
  </defs>
  <g id="_x2018_ëîé_x5F_1">
    <g>
      <path d="M31.08,15.54c0,8.58-3.65,15.54-15.54,15.54S0,24.12,0,15.54,3.83,0,15.54,0s15.54,6.96,15.54,15.54Z" style="fill: url(#_30_gradient);"/>
      <g>
        <circle cx="10.09" cy="9.68" r="5.86" style="fill: #fff;"/>
        <circle cx="20.99" cy="9.68" r="5.86" style="fill: #fff;"/>
      </g>
      <path d="M23.68,23.74c-.09,3.51-3.86.5-7.85.51-4-.11-8.43,3.11-8.42-.39-.06-3.77,4.71-6.53,8.49-6.42,3.76-.02,7.93,2.44,7.79,6.3Z" style="fill: #693719;"/>
      <g>
        <circle cx="10.07" cy="9.68" r="2.67"/>
        <circle cx="21.01" cy="9.68" r="2.67"/>
        <path d="M22.65,8.88c0,.44-.36.8-.8.8s-.8-.36-.8-.8.36-.8.8-.8.8.36.8.8Z" style="fill: #fff;"/>
        <circle cx="10.87" cy="8.88" r=".8" style="fill: #fff;"/>
      </g>
    </g>
  </g>
</svg>