<?xml version="1.0" encoding="UTF-8"?>
<svg id="Layer_2" xmlns="http://www.w3.org/2000/svg" xmlns:xlink="http://www.w3.org/1999/xlink" viewBox="0 0 31.08 31.08">
  <defs>
    <radialGradient id="_33_gradient" data-name="åçûìßííûé ãðàäèåíò 88" cx="15.35" cy="2.36" fx="15.35" fy="2.36" r="21.56" gradientUnits="userSpaceOnUse">
      <stop offset="0" stop-color="#009bdd"/>
      <stop offset="1" stop-color="#ffbe3b"/>
    </radialGradient>
  </defs>
  <g id="_x2018_ëîé_x5F_1">
    <g>
      <path d="M31.08,15.54c0,8.58-3.65,15.54-15.54,15.54S0,24.12,0,15.54,3.83,0,15.54,0s15.54,6.96,15.54,15.54Z" style="fill: url(#_33_gradient);"/>
      <g>
        <circle cx="8.12" cy="8.25" r="4.23" style="fill: #fff;"/>
        <path d="M10.99,8.25c0,1.09-.88,1.98-1.98,1.98s-1.98-.88-1.98-1.98.88-1.98,1.98-1.98,1.98.88,1.98,1.98Z"/>
        <circle cx="22.96" cy="8.25" r="4.23" style="fill: #fff;"/>
        <path d="M23.86,8.25c0,1.09-.88,1.98-1.98,1.98s-1.98-.88-1.98-1.98.88-1.98,1.98-1.98,1.98.88,1.98,1.98Z"/>
      </g>
      <g>
        <path d="M22.21,22.49c-.08,3.14-3.4,3.46-6.67,3.47-3.28-.09-6.68-.23-6.67-3.36-.05-3.37,3.87-5.84,6.96-5.74,3.08-.02,6.5,2.19,6.39,5.63Z" style="fill: #693719;"/>
        <path d="M18.12,20.53c-.1-.57-.39-.93-.84-1.03s-1.03.26-1.12.71c-.04.23.02.88-.55.88s-.51-.65-.55-.88c-.09-.45-.67-.81-1.12-.71-.45.1-.74.47-.84,1.03-.08.45.02,3.35,2.51,3.35s2.59-2.9,2.51-3.35Z" style="fill: #51250f;"/>
        <path d="M15.54,25.96c1.6,0,3.22-.09,4.46-.54-.18-1.71-2.37-3.49-4.35-2.11-1.94-1.49-4.25.36-4.37,2.2,1.22.35,2.75.4,4.27.45Z" style="fill: #f85c44;"/>
        <path d="M20.58,18.69c-1.26-1.18-3.05-1.84-4.75-1.83-1.73-.05-3.71.69-5.11,1.94.91.31,2.4.49,4.83.49,2.64,0,4.16-.22,5.03-.6Z" style="fill: #fff;"/>
      </g>
    </g>
  </g>
</svg>