<?xml version="1.0" encoding="UTF-8"?>
<svg id="Layer_2" xmlns="http://www.w3.org/2000/svg" viewBox="0 0 31.08 31.08">
  <g id="_x2018_ëîé_x5F_1">
    <g>
      <path d="M31.08,15.54c0,8.58-3.65,15.54-15.54,15.54S0,24.12,0,15.54,3.83,0,15.54,0s15.54,6.96,15.54,15.54Z" style="fill: #ffbe3b;"/>
      <g>
        <circle cx="10.09" cy="10.51" r="5.86" style="fill: #fff;"/>
        <path d="M14.52,8.84c0,1.01-.82,1.83-1.83,1.83s-1.83-.82-1.83-1.83.82-1.83,1.83-1.83,1.83.82,1.83,1.83Z"/>
        <circle cx="20.99" cy="10.51" r="5.86" style="fill: #fff;"/>
        <path d="M25.52,8.84c0,1.01-.82,1.83-1.83,1.83s-1.83-.82-1.83-1.83.82-1.83,1.83-1.83,1.83.82,1.83,1.83Z"/>
      </g>
      <path d="M27.39,8.22H3.69v-.08c0-1.12.39-2.13,1.03-2.9.73-.88,1.8-1.44,2.98-1.44h15.69c1.11,0,2.11.49,2.83,1.27s1.17,1.87,1.17,3.07v.08Z" style="fill: #ffbe3b;"/>
      <path d="M4.6,22.22c-.31,0-.59-.22-.65-.53-.07-.36.16-.71.52-.79,7.19-1.48,14.85-1.56,22.14-.24.36.07.6.41.54.78-.07.36-.41.6-.78.54-7.13-1.29-14.61-1.21-21.64.24-.05,0-.09.01-.14.01Z" style="fill: #693719;"/>
    </g>
  </g>
</svg>