<?xml version="1.0" encoding="UTF-8"?>
<svg id="Layer_2" xmlns="http://www.w3.org/2000/svg" viewBox="0 0 31.08 31.08">
  <g id="_x2018_ëîé_x5F_1">
    <g>
      <path d="M31.08,15.54c0,8.58-3.65,15.54-15.54,15.54S0,24.12,0,15.54,3.83,0,15.54,0s15.54,6.96,15.54,15.54Z" style="fill: #ffbe3b;"/>
      <g>
        <circle cx="10.09" cy="10.51" r="5.86" style="fill: #fff;"/>
        <circle cx="12.16" cy="10.51" r="2.18"/>
        <circle cx="20.99" cy="10.51" r="5.86" style="fill: #fff;"/>
        <circle cx="18.66" cy="10.51" r="2.18"/>
      </g>
      <path d="M25.95,6.75l-10.41,4.28L5.13,6.75s.79-2.95,10.41-2.95,10.41,2.95,10.41,2.95Z" style="fill: #ffbe3b;"/>
      <g>
        <path d="M18.73,24.33c-.04,2.39-1.63,2.6-3.2,2.61-1.57-.07-3.2-.14-3.2-2.53-.02-2.57,1.72-4.45,3.2-4.38,1.48-.02,3.25,1.67,3.2,4.29Z" style="fill: #693719;"/>
        <path d="M15.54,26.94c.97,0,1.95-.09,2.57-.72-.32-1.05-1.49-1.94-2.56-1.09-1.05-.93-2.28,0-2.58,1.13.62.59,1.61.64,2.58.68Z" style="fill: #f85c44;"/>
      </g>
    </g>
  </g>
</svg>