<?xml version="1.0" encoding="UTF-8"?>
<svg id="Layer_2" xmlns="http://www.w3.org/2000/svg" viewBox="0 0 31.08 31.08">
  <g id="_x2018_ëîé_x5F_1">
    <g>
      <path d="M31.08,15.54c0,8.58-3.65,15.54-15.54,15.54S0,24.12,0,15.54,3.83,0,15.54,0s15.54,6.96,15.54,15.54Z" style="fill: #ffbe3b;"/>
      <g>
        <path d="M12.35,8.25c0,2.34-1.89,4.23-4.23,4.23s-4.23-1.89-4.23-4.23,1.89-4.23,4.23-4.23,4.23,1.89,4.23,4.23Z" style="fill: #fff;"/>
        <path d="M10.99,8.25c0,1.09-.88,1.98-1.98,1.98s-1.98-.88-1.98-1.98.88-1.98,1.98-1.98,1.98.88,1.98,1.98Z"/>
        <path d="M27.19,8.25c0,2.34-1.89,4.23-4.23,4.23s-4.23-1.89-4.23-4.23,1.89-4.23,4.23-4.23,4.23,1.89,4.23,4.23Z" style="fill: #fff;"/>
        <path d="M23.86,8.25c0,1.09-.88,1.98-1.98,1.98s-1.98-.88-1.98-1.98.88-1.98,1.98-1.98,1.98.88,1.98,1.98Z"/>
      </g>
      <g>
        <path d="M25.81,23.08c-.12,4.83-5.24,5.32-10.27,5.34-5.05-.14-10.28-.35-10.27-5.18-.08-5.19,5.95-8.99,10.71-8.84,4.74-.03,10.01,3.36,9.83,8.67Z" style="fill: #693719;"/>
        <path d="M19.52,20.06c-.15-.88-.61-1.44-1.29-1.59-.69-.16-1.59.4-1.72,1.1-.07.35.04,1.35-.85,1.35s-.79-1-.85-1.35c-.13-.69-1.03-1.25-1.72-1.1-.69.16-1.14.72-1.29,1.59-.12.69.04,5.16,3.87,5.16s3.98-4.46,3.87-5.16Z" style="fill: #51250f;"/>
        <path d="M15.54,28.42c2.47,0,4.95-.13,6.86-.82-.28-2.63-3.64-5.37-6.7-3.25-2.99-2.29-6.55.55-6.73,3.39,1.87.54,4.24.62,6.57.69Z" style="fill: #f85c44;"/>
        <path d="M23.29,17.22c-1.93-1.81-4.7-2.83-7.31-2.82-2.66-.08-5.71,1.06-7.87,2.99,1.4.48,3.7.75,7.44.75,4.06,0,6.4-.34,7.75-.93Z" style="fill: #fff;"/>
      </g>
    </g>
  </g>
</svg>