<?xml version="1.0" encoding="UTF-8"?>
<svg xmlns="http://www.w3.org/2000/svg" version="1.1" viewBox="0 0 31.1 31.1">
  <defs>
    <style>
      .cls-1 {
        fill: #fff;
      }

      .cls-2 {
        fill: #ffbe3b;
      }

      .cls-3 {
        fill: #94daeb;
      }

      .cls-4 {
        fill: #693719;
      }
    </style>
  </defs>
  <!-- Generator: Adobe Illustrator 28.6.0, SVG Export Plug-In . SVG Version: 1.2.0 Build 709)  -->
  <g>
    <g id="Layer_2">
      <g id="_x2018_ëîé_x5F_1">
        <g>
          <path class="cls-2" d="M31.1,15.6c0,8.6-3.6,15.5-15.5,15.5S0,24.1,0,15.6,3.8,0,15.5,0s15.5,7,15.5,15.5Z"/>
          <g>
            <path class="cls-4" d="M24.6,24.9c-1.6,3-4.6-.9-9-.9-4.4-.1-7.1,3.4-8.9,1-1.8-2.3,1.6-9.5,9-9.5s10.5,6.4,8.9,9.3h0Z"/>
            <path class="cls-1" d="M9.2,17.8c1.5.9,3.5.9,6.3.9s5.2.3,6.7-.9c-1.6-1.3-3.8-2.3-6.6-2.3s-4.8.9-6.4,2.2Z"/>
          </g>
          <g>
            <path class="cls-3" d="M3,22.6c-1.3,1.5-3.6,1.6-5.1.3-1.5-1.3-1.6-3.6-.3-5.1,1.3-1.5,7.3-4,7.9-3.4.6.6-1.2,6.7-2.6,8.2Z"/>
            <path class="cls-3" d="M28.1,22.6c1.3,1.5,3.6,1.6,5.1.3,1.5-1.3,1.6-3.6.3-5.1-1.3-1.5-7.3-4-7.9-3.4s1.2,6.7,2.6,8.2Z"/>
          </g>
          <g>
            <path class="cls-4" d="M25.7,12.1l-4.1-1.1,4.1-2.1c.3-.2.5-.6.3-.9-.2-.3-.6-.5-.9-.3l-5.7,2.9c-.2.1-.4.4-.4.7,0,.3.2.5.5.6l5.8,1.6c0,0,.1,0,.2,0,.3,0,.6-.2.6-.5.1-.4-.1-.7-.5-.8h0Z"/>
            <path class="cls-4" d="M11.6,10.6l-5.7-2.9c-.3-.2-.7,0-.9.3s0,.7.3.9l4.1,2.1-4.1,1.1c-.4.1-.6.5-.5.8,0,.3.4.5.6.5s.1,0,.2,0l5.8-1.6c.3,0,.5-.3.5-.6,0-.3-.1-.5-.4-.7h0Z"/>
            <path class="cls-4" d="M24.1,6c.3,0,.6-.2.7-.6,0-.4-.2-.7-.6-.8-1.8-.3-3.6-1-5.1-2.1-.3-.2-.7-.2-.9.1-.2.3-.2.7.1.9,1.7,1.2,3.6,2.1,5.7,2.4h.1,0Z"/>
            <path class="cls-4" d="M12,2.6c-1.5,1.1-3.2,1.8-5.1,2.1-.4,0-.6.4-.6.8,0,.3.3.6.7.6h.1c2.1-.3,4-1.1,5.7-2.4.3-.2.4-.6.1-.9-.2-.3-.6-.4-.9-.1h0Z"/>
          </g>
        </g>
      </g>
    </g>
  </g>
</svg>