<?xml version="1.0" encoding="UTF-8"?>
<svg id="Layer_2" xmlns="http://www.w3.org/2000/svg" viewBox="0 0 31.08 31.08">
  <g id="_x2018_ëîé_x5F_1">
    <g>
      <path d="M31.08,15.54c0,8.58-3.65,15.54-15.54,15.54S0,24.12,0,15.54,3.83,0,15.54,0s15.54,6.96,15.54,15.54Z" style="fill: #ffbe3b;"/>
      <g>
        <path d="M5.8,5.1c-.45.79-.71,1.7-.71,2.67,0,2.99,2.42,5.42,5.42,5.42,2.2,0,4.09-1.32,4.94-3.21L5.8,5.1Z" style="fill: #fff;"/>
        <path d="M15.64,9.98c.85,1.89,2.73,3.21,4.94,3.21,2.99,0,5.42-2.42,5.42-5.42,0-.97-.26-1.88-.71-2.67l-9.64,4.88Z" style="fill: #fff;"/>
      </g>
      <g>
        <path d="M25.98,23.11c-.12,4.93-5.34,5.43-10.48,5.45-5.15-.15-10.48-.36-10.48-5.28-.08-5.3,6.07-9.17,10.93-9.02,4.84-.03,10.21,3.43,10.03,8.85Z" style="fill: #51250f;"/>
        <path d="M19.56,20.03c-.15-.89-.62-1.47-1.32-1.63s-1.62.41-1.75,1.12c-.07.36.04,1.38-.87,1.38s-.8-1.02-.87-1.38c-.13-.71-1.05-1.28-1.75-1.12-.7.16-1.17.73-1.32,1.63-.12.71.04,5.26,3.94,5.26s4.06-4.55,3.94-5.26Z" style="fill: #351609;"/>
        <path d="M15.51,28.56c2.52,0,5.05-.14,7-.84-.29-2.68-3.72-5.48-6.83-3.32-3.05-2.34-6.68.56-6.87,3.45,1.91.55,4.32.63,6.7.7Z" style="fill: #f86e44;"/>
        <path d="M23.42,17.14c-1.97-1.85-4.8-2.89-7.46-2.87-2.71-.08-5.82,1.09-8.03,3.05,1.43.49,3.77.76,7.59.76,4.14,0,6.53-.35,7.9-.95Z" style="fill: #fff;"/>
      </g>
      <g>
        <path d="M16.46,9.57c.19.91,1,1.6,1.97,1.6,1.11,0,2.02-.9,2.02-2.02,0-.52-.2-.98-.52-1.34l-3.47,1.76Z"/>
        <path d="M10.99,7.73c-.36.36-.59.87-.59,1.42,0,1.11.9,2.02,2.02,2.02,1.01,0,1.84-.74,1.98-1.71l-3.41-1.73Z"/>
      </g>
    </g>
  </g>
</svg>