<?xml version="1.0" encoding="UTF-8"?>
<svg id="Layer_2" xmlns="http://www.w3.org/2000/svg" viewBox="0 0 31.08 31.08">
  <g id="_x2018_ëîé_x5F_1">
    <g>
      <path d="M31.08,15.54c0,8.58-3.65,15.54-15.54,15.54S0,24.12,0,15.54,3.83,0,15.54,0s15.54,6.96,15.54,15.54Z" style="fill: #ffbe3b;"/>
      <g>
        <circle cx="10.09" cy="10.51" r="5.86" style="fill: #fff;"/>
        <circle cx="12.16" cy="10.51" r="2.18"/>
        <path d="M26.85,10.51c0,3.24-2.62,5.86-5.86,5.86s-5.86-2.62-5.86-5.86,2.62-5.86,5.86-5.86,5.86,2.62,5.86,5.86Z" style="fill: #fff;"/>
        <path d="M20.85,10.51c0,1.21-.98,2.18-2.18,2.18s-2.18-.98-2.18-2.18.98-2.18,2.18-2.18,2.18.98,2.18,2.18Z"/>
      </g>
      <path d="M4.6,22.22c-.31,0-.59-.22-.65-.53-.07-.36.16-.71.52-.79,7.19-1.48,14.85-1.56,22.14-.24.36.07.6.41.54.78-.07.36-.41.6-.78.54-7.13-1.29-14.61-1.21-21.64.24-.05,0-.09.01-.14.01Z" style="fill: #693719;"/>
    </g>
  </g>
</svg>