<?xml version="1.0" encoding="UTF-8"?>
<svg id="Layer_2" xmlns="http://www.w3.org/2000/svg" xmlns:xlink="http://www.w3.org/1999/xlink" viewBox="0 0 31.08 31.08">
  <defs>
    <radialGradient id="_5_gradient" data-name="åçûìßííûé ãðàäèåíò 106" cx="15.4" cy="2.16" fx="15.4" fy="2.16" r="22.18" gradientUnits="userSpaceOnUse">
      <stop offset="0" stop-color="#ff4335"/>
      <stop offset=".33" stop-color="#ff6836"/>
      <stop offset="1" stop-color="#ffbe3b"/>
    </radialGradient>
  </defs>
  <g id="_x2018_ëîé_x5F_1">
    <g>
      <path d="M31.08,15.54c0,8.58-3.65,15.54-15.54,15.54S0,24.12,0,15.54,3.83,0,15.54,0s15.54,6.96,15.54,15.54Z" style="fill: url(#_5_gradient);"/>
      <g>
        <path d="M25.71,12.12l-4.15-1.15,4.14-2.13c.33-.17.46-.57.29-.9-.17-.33-.57-.46-.9-.29l-5.66,2.91c-.24.13-.39.39-.36.66.03.27.22.5.48.57l5.79,1.61c.06.02.12.02.18.02.29,0,.56-.19.64-.49.1-.35-.11-.72-.46-.82Z" style="fill: #693719;"/>
        <path d="M11.65,10.56l-5.66-2.91c-.33-.17-.73-.04-.9.29-.17.33-.04.73.29.9l4.14,2.13-4.15,1.15c-.35.1-.56.47-.46.82.08.3.35.49.64.49.06,0,.12,0,.18-.02l5.79-1.61c.26-.07.46-.3.48-.57.03-.27-.11-.54-.36-.66Z" style="fill: #693719;"/>
      </g>
      <g>
        <path d="M24.38,16.25c-2.23-1.48-2.73.9-8.84.9s-6.6-2.38-8.84-.9-1.72,7.06,0,8.45c1.72,1.39,4.24-.25,8.84-.25s7.11,1.64,8.84.25c1.72-1.39,2.23-6.97,0-8.45Z" style="fill: #693719;"/>
        <g>
          <path d="M15.72,21.83c-7.01,0-8.43,1.25-8.63,3.12,1.71.91,4.18-.5,8.45-.5,4.59,0,7.1,1.63,8.82.26-.23-1.79-1.83-2.88-8.64-2.88Z" style="fill: #fff;"/>
          <path d="M24.38,16.25c-2.23-1.48-2.73.9-8.84.9-5.77,0-6.53-2.12-8.48-1.11-.01,2.22,1.15,3.6,8.67,3.6s8.5-1.37,8.65-3.39c0,0,0,0,0,0Z" style="fill: #fff;"/>
        </g>
      </g>
    </g>
  </g>
</svg>