<?xml version="1.0" encoding="UTF-8"?>
<svg id="Layer_2" xmlns="http://www.w3.org/2000/svg" viewBox="0 0 31.08 31.08">
  <g id="_x2018_ëîé_x5F_1">
    <g>
      <path d="M31.08,15.54c0,8.58-3.65,15.54-15.54,15.54S0,24.12,0,15.54,3.83,0,15.54,0s15.54,6.96,15.54,15.54Z" style="fill: #73c800;"/>
      <g>
        <circle cx="10.53" cy="12.38" r="5.4" style="fill: #fff;"/>
        <path d="M14.44,12.38c0,1.11-.9,2.01-2.01,2.01s-2.01-.9-2.01-2.01.9-2.01,2.01-2.01,2.01.9,2.01,2.01Z"/>
        <circle cx="20.56" cy="12.38" r="5.4" style="fill: #fff;"/>
        <path d="M20.42,12.38c0,1.11-.9,2.01-2.01,2.01s-2.01-.9-2.01-2.01.9-2.01,2.01-2.01,2.01.9,2.01,2.01Z"/>
      </g>
      <g>
        <path d="M22.92,22.88c-.23.12-.45.27-.65.44-.76-.6-3.14-2.24-6.73-2.24s-5.98,1.64-6.73,2.24c-.2-.17-.42-.31-.65-.44-.32-.17-.73-.05-.9.28-.17.33-.05.73.28.9.58.31,1.03.84,1.23,1.46.09.28.35.46.63.46.07,0,.14-.01.21-.03.35-.11.54-.49.43-.84-.09-.27-.21-.53-.36-.78.65-.51,2.75-1.92,5.87-1.92s5.21,1.42,5.87,1.92c-.15.25-.27.51-.36.78-.11.35.08.73.43.84.07.02.14.03.21.03.28,0,.54-.18.63-.46.2-.62.65-1.16,1.23-1.46.33-.17.45-.58.28-.9-.17-.33-.57-.45-.9-.28Z" style="fill: #4d7016;"/>
        <path d="M23.9,3.29c-1.84-.27-3.6-1.01-5.09-2.12-.3-.22-.71-.16-.93.14-.22.3-.16.71.14.93,1.67,1.24,3.63,2.06,5.69,2.37.03,0,.07,0,.1,0,.32,0,.61-.24.66-.57.05-.36-.2-.7-.56-.76Z" style="fill: #4d7016;"/>
        <path d="M7.4,6.06c2.04-.37,3.99-1.24,5.61-2.53.29-.23.34-.65.11-.94-.23-.29-.65-.34-.94-.11-1.46,1.15-3.19,1.94-5.02,2.27-.36.07-.6.41-.54.77.06.32.34.55.66.55.04,0,.08,0,.12-.01Z" style="fill: #4d7016;"/>
      </g>
    </g>
  </g>
</svg>