<?xml version="1.0" encoding="UTF-8"?>
<svg id="Layer_2" xmlns="http://www.w3.org/2000/svg" viewBox="0 0 31.08 31.08">
  <g id="_x2018_ëîé_x5F_1">
    <g>
      <path d="M31.08,15.54c0,8.58-3.65,15.54-15.54,15.54S0,24.12,0,15.54,3.83,0,15.54,0s15.54,6.96,15.54,15.54Z" style="fill: #ffbe3b;"/>
      <g>
        <circle cx="9.26" cy="12.06" r="4.23" style="fill: #fff;"/>
        <circle cx="10.16" cy="12.06" r="1.98"/>
        <circle cx="22.34" cy="12.06" r="4.23" style="fill: #fff;"/>
        <circle cx="21.26" cy="12.06" r="1.98"/>
      </g>
      <g>
        <path d="M19.63,21.13c-.34-.13-.73.04-.86.39-.51,1.33-1.8,2.23-3.22,2.23s-2.72-.9-3.22-2.23c-.13-.34-.52-.52-.86-.39-.34.13-.52.52-.39.86.7,1.85,2.5,3.09,4.47,3.09s3.77-1.24,4.47-3.09c.13-.34-.04-.73-.39-.86Z" style="fill: #693719;"/>
        <path d="M26.59,6.66c-1.46-1.96-3.78-3.22-6.22-3.37-.37-.02-.68.26-.71.62s.26.68.62.71c2.05.13,4.01,1.19,5.23,2.84.13.18.33.27.54.27.14,0,.28-.04.4-.13.3-.22.36-.64.14-.93Z" style="fill: #693719;"/>
        <path d="M11.42,3.92c-.02-.37-.34-.65-.71-.62-2.44.15-4.76,1.41-6.22,3.37-.22.3-.16.71.14.93.12.09.26.13.4.13.2,0,.41-.09.54-.27,1.22-1.65,3.18-2.71,5.23-2.84.37-.02.65-.34.62-.71Z" style="fill: #693719;"/>
      </g>
    </g>
  </g>
</svg>