<?xml version="1.0" encoding="UTF-8"?>
<svg xmlns="http://www.w3.org/2000/svg" version="1.1" viewBox="0 0 31.1 31.1">
  <defs>
    <style>
      .cls-1 {
        fill: #fff;
      }

      .cls-2 {
        fill: #ffbe3b;
      }

      .cls-3_8 {
        fill: #ffed48;
      }
    </style>
  </defs>
  <!-- Generator: Adobe Illustrator 28.6.0, SVG Export Plug-In . SVG Version: 1.2.0 Build 709)  -->
  <g>
    <g id="Layer_2">
      <g id="_x2018_ëîé_x5F_1">
        <g>
          <path class="cls-2" d="M31.1,15.5c0,8.6-3.6,15.5-15.5,15.5S0,24.1,0,15.5,3.8,0,15.5,0s15.5,7,15.5,15.5Z"/>
          <g>
            <polygon class="cls-3_8" points="26.1 .7 27.7 6.7 33.4 8.8 28.2 12 28 18.1 23.3 14.2 17.4 15.9 19.7 10.2 16.3 5.2 22.4 5.6 26.1 .7"/>
            <polygon class="cls-3_8" points="5 .7 3.4 6.7 -2.3 8.8 2.8 12 3.1 18.1 7.8 14.2 13.7 15.9 11.4 10.2 14.8 5.2 8.7 5.6 5 .7"/>
          </g>
          <path class="cls-1" d="M7.1,18.4c-.4,0-.7.2-.9.5-.2.4-.3.9-.1,1.4,1,2.5,3.6,6.4,9.5,6.4s8.5-4,9.5-6.5c.2-.4.1-.9,0-1.3-.2-.4-.5-.6-1-.6,0,0-16.9,0-16.9,0Z"/>
        </g>
      </g>
    </g>
  </g>
</svg>